<?xml version="1.0" encoding="UTF-8"?>
<svg id="Layer_2" data-name="Layer 2" xmlns="http://www.w3.org/2000/svg" viewBox="0 0 500 500">
  <defs>
    <style>
      .cls-1 {
        fill: #b2b2b2;
      }
    </style>
  </defs>
  <g id="Layer_1-2" data-name="Layer 1">
    <path class="cls-1" d="m499.98,251.33c0,65.85.02,131.7-.01,197.54-.02,34.14-17.14,51.07-51.89,51.08-132.08.06-264.16.06-396.23.03-34.58,0-51.83-17.07-51.83-51.19C0,316.23,0,183.67.02,51.1.03,17.07,17.2.09,51.94.07,184.46-.01,316.98-.02,449.5.04c32.72.01,50.41,17.53,50.46,49.85.09,67.15.03,134.29.03,201.44Zm-251.03,170.37c57.63,0,115.27.09,172.9-.17,4.4-.02,9.22-1.87,12.87-4.3.95-.63-.89-7.33-3.01-10.09-26.97-35.24-54.18-70.29-81.43-105.32-5.95-7.65-14.22-10.86-23.34-7.44-5.02,1.88-9.37,6.25-13.25,10.22-24.34,24.88-47.08,22.94-66.63-6.04-17.26-25.57-34.37-51.24-51.59-76.84-10.82-16.09-15.51-15.84-25.19,1.41-33.77,60.14-67.5,120.31-101.24,180.47-8.14,14.52-6.02,18.11,10.98,18.12,56.31.05,112.63.02,168.94,0Zm170.58-279.44c.1-35.09-28.7-63.86-64.07-64.01-34.43-.14-63.59,28.48-64.02,62.85-.43,34.67,28.86,63.92,64.17,64.08,34.34.15,63.82-28.87,63.92-62.92Z"/>
  </g>
</svg>